<svg width="206" height="42" viewBox="0 0 206 42" fill="none" xmlns="http://www.w3.org/2000/svg">
<g clip-path="url(#clip0_5_573)">
<mask id="mask0_5_573" style="mask-type:luminance" maskUnits="userSpaceOnUse" x="0" y="0" width="206" height="42">
<path d="M0 42H206V0H0V42Z" fill="white"/>
</mask>
<g mask="url(#mask0_5_573)">
<path d="M191.922 20.696C191.152 20.6614 190.383 20.785 189.663 21.0591C188.943 21.3331 188.287 21.7517 187.737 22.2887C186.58 23.6321 186.005 25.3767 186.138 27.1407C186.061 28.5334 186.494 29.9068 187.356 31.0064C187.79 31.4961 188.33 31.8806 188.936 32.1304C189.542 32.3802 190.197 32.4887 190.852 32.4475C191.431 32.4955 192.013 32.4112 192.553 32.2009C193.094 31.9907 193.579 31.6601 193.972 31.2346C194.728 30.233 195.105 28.9981 195.037 27.7472V21.1508C194.026 20.852 192.977 20.6988 191.922 20.696ZM190.781 33.2057C190.024 33.2595 189.266 33.1367 188.566 32.8471C187.866 32.5575 187.243 32.1092 186.748 31.5378C185.79 30.3046 185.304 28.7726 185.378 27.2158C185.308 26.243 185.433 25.2661 185.747 24.3421C186.06 23.418 186.555 22.5654 187.204 21.8338C187.825 21.2281 188.564 20.7545 189.375 20.4417C190.186 20.1289 191.052 19.9835 191.922 20.0143C193.106 20.0252 194.283 20.2037 195.418 20.5443C195.488 20.5797 195.546 20.634 195.587 20.7008C195.627 20.7677 195.648 20.8446 195.647 20.9227V27.7472C195.738 29.1867 195.31 30.6113 194.439 31.7645C193.968 32.2511 193.398 32.6316 192.767 32.8802C192.136 33.1288 191.459 33.2398 190.781 33.2057ZM190.781 12.0534C188.015 12.0096 185.287 12.6872 182.866 14.0189C180.672 15.2568 178.857 17.0646 177.616 19.2493C176.346 21.5499 175.69 24.1363 175.712 26.7609C175.676 29.0919 176.089 31.4082 176.93 33.584C177.651 35.5027 178.826 37.2204 180.355 38.5918C181.352 39.4112 182.485 40.0527 183.702 40.4878C186.317 41.4708 189.215 41.3889 191.769 40.2597C193.13 39.6643 194.328 38.7549 195.265 37.607C195.341 37.4553 195.493 37.4553 195.645 37.4553C195.798 37.4553 195.873 37.607 195.949 37.7586L196.406 40.3362H205.076V0.760802H195.567V12.3608C195.566 12.4194 195.552 12.4771 195.526 12.5296C195.499 12.5821 195.461 12.628 195.415 12.664C195.326 12.7238 195.218 12.7504 195.111 12.7391C194.579 12.5833 193.976 12.4317 193.215 12.2801C192.413 12.126 191.598 12.0501 190.781 12.0534ZM187.737 41.9999C186.264 42.0072 184.8 41.7765 183.402 41.3169C182.085 40.878 180.869 40.1824 179.825 39.2707C178.219 37.8149 176.992 35.994 176.248 33.9638C175.381 31.6873 174.943 29.2717 174.955 26.8374C174.913 24.0823 175.595 21.3641 176.933 18.9516C178.234 16.632 180.156 14.7165 182.486 13.418C185.02 12.0172 187.883 11.3124 190.781 11.3759C191.671 11.3736 192.56 11.4499 193.438 11.604C193.97 11.6792 194.503 11.8308 194.96 11.9073V0.383828C194.957 0.333234 194.965 0.282528 194.983 0.235075C195 0.187622 195.028 0.144507 195.064 0.108592C195.1 0.0726774 195.144 0.0447831 195.191 0.0267629C195.239 0.00874257 195.29 0.00100795 195.341 0.0040712H205.625C205.676 0.00100795 205.727 0.00874257 205.775 0.0267629C205.822 0.0447831 205.866 0.0726774 205.902 0.108592C205.937 0.144507 205.965 0.187622 205.983 0.235075C206.001 0.282528 206.009 0.333234 206.006 0.383828V40.8662C206.009 40.9168 206.001 40.9675 205.983 41.0149C205.965 41.0624 205.937 41.1055 205.902 41.1414C205.866 41.1773 205.822 41.2052 205.775 41.2233C205.727 41.2413 205.676 41.249 205.625 41.2459H196.257C196.173 41.2315 196.094 41.196 196.027 41.143C195.961 41.09 195.909 41.0211 195.876 40.9427L195.496 38.82C194.573 39.7933 193.46 40.5674 192.224 41.0943C190.786 41.6356 189.27 41.9428 187.734 42.0041" fill="#FCD400"/>
<path d="M64.3029 40.7868V0.378174H54.0295V12.3565C53.3782 12.1713 52.7178 12.0195 52.0509 11.9016C51.1983 11.7408 50.3317 11.6648 49.464 11.6749C46.6475 11.6145 43.8649 12.2944 41.3971 13.646C39.151 14.9353 37.2872 16.792 35.994 19.028C34.69 21.3953 34.0342 24.062 34.0923 26.7608C34.056 29.141 34.4686 31.5068 35.3088 33.7356C36.0262 35.7163 37.2275 37.4883 38.8046 38.8922C39.8421 39.7518 41.0261 40.4194 42.3004 40.8633C43.6456 41.3286 45.0615 41.5592 46.4856 41.5449C47.9319 41.5279 49.3596 41.2184 50.6819 40.6352C52.1289 40.0403 53.3898 39.0716 54.3343 37.8294L54.8671 40.7117H64.3029V40.7868ZM52.8885 31.4668C52.4705 31.9315 51.9518 32.2958 51.3717 32.5322C50.7916 32.7686 50.1651 32.8709 49.5395 32.8314C48.8326 32.8694 48.1259 32.7534 47.4687 32.4915C46.8115 32.2296 46.2197 31.8281 45.7347 31.3151C44.8471 30.1352 44.3925 28.6885 44.4468 27.2157C44.3282 25.3354 44.957 23.484 46.1975 22.0605C46.7888 21.4834 47.4915 21.0314 48.2632 20.7318C49.0349 20.4323 49.8596 20.2913 50.6875 20.3175C51.8265 20.2902 52.9609 20.4698 54.0351 20.8475V27.6636C54.1265 29.0274 53.7193 30.3781 52.8885 31.4668ZM79.3712 40.7868V27.9738C79.3712 23.0467 81.5777 20.6207 86.0677 20.6207C87.068 20.6349 88.0634 20.7619 89.035 20.9991L90.4053 12.2814C89.9098 12.1108 89.4003 11.9838 88.8825 11.9016C88.1762 11.8054 87.4644 11.7547 86.7515 11.75C85.2153 11.6995 83.7011 12.1232 82.4167 12.963C81.2265 13.7207 80.1935 14.6987 79.374 15.8439L78.9852 12.2814H69.0977V40.7868H79.3712ZM93.4494 34.267C94.696 36.5576 96.5694 38.4502 98.8525 39.7254C101.275 41.1273 104.04 41.8359 106.843 41.7731C109.645 41.8357 112.41 41.1271 114.832 39.7254C117.078 38.426 118.921 36.5377 120.16 34.267C121.464 31.8996 122.12 29.233 122.062 26.5341C122.102 23.8373 121.447 21.1752 120.16 18.8013C118.92 16.531 117.077 14.6429 114.832 13.3428C112.409 11.9416 109.644 11.2335 106.843 11.2965C104.043 11.2533 101.283 11.9605 98.8525 13.3442C96.6026 14.6622 94.7396 16.5444 93.4494 18.8026C92.1443 21.1696 91.488 23.8365 91.5463 26.5355C91.5067 29.2325 92.1619 31.8932 93.4494 34.267ZM102.733 31.0077C101.707 29.7443 101.17 28.1574 101.218 26.5341C101.186 24.912 101.724 23.3295 102.74 22.0605C103.234 21.4589 103.864 20.9809 104.577 20.6649C105.291 20.3489 106.069 20.2037 106.85 20.241C107.628 20.2196 108.401 20.3719 109.112 20.6868C109.823 21.0017 110.454 21.4711 110.959 22.0605C111.987 23.3231 112.527 24.91 112.481 26.5341C112.514 28.1558 111.976 29.738 110.959 31.0063C110.465 31.6078 109.835 32.0856 109.122 32.4016C108.408 32.7176 107.63 32.8629 106.85 32.8258C106.069 32.8631 105.291 32.7179 104.577 32.4019C103.864 32.0859 103.234 31.608 102.74 31.0063M137.138 0.378174H126.019V8.41428H137.13L137.138 0.378174ZM136.681 12.2814H126.399V40.7868H136.673L136.681 12.2814ZM171.222 40.7868V0.378174H160.949V12.3565C160.298 12.1715 159.637 12.0197 158.97 11.9016C158.117 11.7408 157.25 11.6648 156.382 11.6749C153.566 11.6145 150.784 12.2944 148.317 13.646C146.071 14.9353 144.207 16.792 142.913 19.028C141.609 21.3952 140.953 24.0619 141.01 26.7608C140.974 29.1411 141.387 31.507 142.228 33.7356C142.946 35.716 144.147 37.488 145.724 38.8922C146.762 39.7514 147.946 40.419 149.22 40.8633C150.565 41.3286 151.981 41.5592 153.405 41.5449C154.848 41.5268 156.271 41.2172 157.59 40.6352C159.037 40.0406 160.298 39.0719 161.243 37.8294L161.775 40.7117H171.213L171.222 40.7868ZM159.808 31.4668C159.39 31.9315 158.872 32.2958 158.292 32.5322C157.712 32.7686 157.086 32.8709 156.46 32.8314C155.753 32.8694 155.047 32.7534 154.39 32.4915C153.732 32.2296 153.141 31.8281 152.656 31.3151C151.724 30.1601 151.262 28.699 151.362 27.2213C151.244 25.3412 151.872 23.4901 153.111 22.066C153.703 21.4891 154.406 21.0373 155.177 20.7377C155.949 20.4382 156.773 20.2971 157.601 20.3231C158.741 20.2959 159.876 20.4755 160.95 20.8531V27.6692C161.042 29.0307 160.637 30.3793 159.808 31.4668Z" fill="#FCD400"/>
<path d="M16.9699 20.696C16.1998 20.6614 15.4308 20.785 14.7108 21.0591C13.9907 21.3331 13.3351 21.7517 12.7848 22.2887C11.6279 23.6321 11.0532 25.3767 11.1865 27.1407C11.1091 28.5334 11.5418 29.9068 12.4044 31.0064C12.8379 31.4961 13.3783 31.8806 13.9843 32.1304C14.5902 32.3802 15.2456 32.4887 15.9002 32.4476C16.4788 32.4955 17.0607 32.4112 17.6015 32.2009C18.1422 31.9907 18.6274 31.6601 19.0199 31.2346C19.7764 30.233 20.1537 28.9981 20.0854 27.7472V21.1508C19.0741 20.852 18.0249 20.6988 16.9699 20.696ZM15.752 33.2057C14.9955 33.2594 14.2369 33.1364 13.5367 32.8466C12.8365 32.5568 12.2141 32.1081 11.7193 31.5364C10.7613 30.3032 10.2756 28.7712 10.3489 27.2144C10.2794 26.2419 10.405 25.2653 10.7186 24.3416C11.0321 23.4178 11.5272 22.5654 12.1751 21.8338C12.7967 21.2281 13.5355 20.7544 14.3468 20.4417C15.1581 20.1289 16.0249 19.9835 16.8944 20.0143C18.0786 20.0311 19.2548 20.2094 20.3902 20.5443C20.46 20.5799 20.5183 20.6342 20.5586 20.7011C20.5988 20.768 20.6195 20.8447 20.6182 20.9227V27.7472C20.7062 29.1877 20.2749 30.6122 19.4016 31.7645C18.9412 32.262 18.374 32.65 17.7421 32.8994C17.1103 33.1489 16.4301 33.2536 15.752 33.2057ZM15.752 12.0534C12.9866 12.0099 10.2579 12.6875 7.83754 14.0189C5.64351 15.2572 3.82871 17.065 2.58687 19.2493C1.31793 21.5503 0.663182 24.1365 0.685156 26.7609C0.648513 29.0918 1.06148 31.4079 1.90169 33.584C2.62234 35.5027 3.79697 37.2204 5.32617 38.5918C6.3242 39.4113 7.45724 40.0527 8.67514 40.4878C11.2895 41.4708 14.188 41.3889 16.742 40.2597C18.1027 39.6645 19.3011 38.7551 20.2378 37.607C20.3147 37.4553 20.4657 37.4553 20.6182 37.4553C20.7706 37.4553 20.8475 37.607 20.923 37.7586L21.3788 40.3362H30.0596V0.760802H20.6993V12.3608C20.6979 12.4194 20.6835 12.4769 20.6572 12.5294C20.6308 12.5818 20.5931 12.6278 20.5468 12.664C20.4572 12.7237 20.3493 12.7503 20.242 12.7391C19.7093 12.5875 19.101 12.4359 18.3403 12.2843C17.4864 12.1289 16.6201 12.0516 15.752 12.0534ZM12.7848 41.9999C11.3122 42.0072 9.84824 41.7765 8.45001 41.3169C7.13288 40.878 5.91689 40.1824 4.87311 39.2707C3.26769 37.8149 2.04044 35.994 1.29622 33.9638C0.429663 31.6873 -0.00877293 29.2717 0.00277756 26.8374C-0.038891 24.0823 0.643133 21.3641 1.9814 18.9516C3.28264 16.632 5.20468 14.7165 7.53411 13.418C10.0679 12.0172 12.9308 11.3124 15.8289 11.3759C16.7196 11.3737 17.6086 11.4501 18.4857 11.604C19.0171 11.6792 19.5498 11.8308 20.0071 11.9073V0.383828C20.0038 0.333234 20.0114 0.282528 20.0294 0.235075C20.0473 0.187622 20.0752 0.144507 20.1111 0.108592C20.1471 0.0726774 20.1904 0.0447831 20.238 0.0267629C20.2856 0.00874257 20.3366 0.00100795 20.3874 0.0040712H30.5923C30.6432 0.00100795 30.6942 0.00874257 30.7418 0.0267629C30.7894 0.0447831 30.8327 0.0726774 30.8686 0.108592C30.9046 0.144507 30.9325 0.187622 30.9504 0.235075C30.9684 0.282528 30.976 0.333234 30.9727 0.383828V40.8662C30.976 40.9168 30.9684 40.9675 30.9504 41.0149C30.9325 41.0624 30.9046 41.1055 30.8686 41.1414C30.8327 41.1773 30.7894 41.2052 30.7418 41.2233C30.6942 41.2413 30.6432 41.249 30.5923 41.2459H21.232C21.148 41.2315 21.0691 41.196 21.0026 41.143C20.9361 41.09 20.8842 41.0211 20.8517 40.9427L20.4657 38.8158C19.5437 39.7894 18.4298 40.5637 17.1937 41.0902C15.7824 41.6308 14.2917 41.9381 12.7806 41.9999" fill="#FCD400"/>
</g>
</g>
<defs>
<clipPath id="clip0_5_573">
<rect width="206" height="42" fill="white"/>
</clipPath>
</defs>
</svg>
